<svg version="1.1" viewBox="0 0 1603.6 800" xml:space="preserve" xmlns="http://www.w3.org/2000/svg"><defs><clipPath id="f"><path d="M 0,377.089 H 598.176 V 0 H 0 Z"/></clipPath><clipPath id="e"><path d="m101.54 194.52v-24.795h44.881c3.535 0 6.696-0.09 9.521-0.245 3.589-0.196 6.036-0.94 7.297-2.054l48.049 11.215c-2.126 7.599-8.335 17.512-25.609 23.079-8.625 2.779-19.685 4.372-32.94 4.749z"/></clipPath><linearGradient id="c" x2="1" gradientTransform="matrix(-9.1844 39.35 159.12 37.138 161.53 167.03)" gradientUnits="userSpaceOnUse"><stop stop-color="#fff" stop-opacity="0" offset="0"/><stop stop-color="#fff" offset="1"/></linearGradient><mask id="a" x="0" y="0" width="1" height="1" maskUnits="userSpaceOnUse"><path d="m-32768 32767h65535v-65535h-65535z" fill="url(#c)"/></mask><linearGradient id="b" x2="1" gradientTransform="matrix(-9.1844 39.35 159.12 37.138 161.53 167.03)" gradientUnits="userSpaceOnUse"><stop stop-color="#a00417" offset="0"/><stop stop-color="#a00417" offset="1"/></linearGradient><clipPath id="d"><path d="M 0,377.089 H 598.176 V 0 H 0 Z"/></clipPath></defs><g transform="matrix(1.3333 0 0 -1.3333 386.57 654.43)"><g transform="matrix(2.8652 0 0 2.8652 -580.87 -355.92)"><g clip-path="url(#f)"><g transform="translate(211.48 177.95)"><path d="m0 0c-1.939 7.679-7.989 18.036-25.795 23.774-9.961 3.209-23.17 4.837-39.258 4.837h-44.881v-36.833h44.881c3.535 0 6.697-0.09 9.521-0.244 9.924-0.543 11.116-5.264 2.641-10.454-2.412-1.477-5.152-3.058-8.263-4.736l-48.78-26.322v-41.853l66.271 35.76c14.158 7.64 25.009 15.344 32.252 22.9 12.945 13.504 13.35 25.492 11.411 33.171" fill="#f00"/></g></g></g><g transform="matrix(2.8652 0 0 2.8652 -580.87 -355.92)"><g clip-path="url(#e)"><g mask="url(#a)"><path d="m101.54 194.52v-24.795h44.881c3.535 0 6.696-0.09 9.521-0.245 3.589-0.196 6.036-0.94 7.297-2.054l48.049 11.215c-2.126 7.599-8.335 17.512-25.609 23.079-8.625 2.779-19.685 4.372-32.94 4.749z" fill="url(#b)"/></g></g></g><g transform="matrix(2.8652 0 0 2.8652 -580.87 -355.92)"><g clip-path="url(#d)"><g transform="translate(211.48 261.56)"><path d="m0 0c-1.939 7.678-7.989 18.036-25.795 23.773-9.961 3.21-23.17 4.838-39.258 4.838h-44.881v-36.833h44.881c3.535 0 6.698-0.09 9.522-0.244 9.923-0.543 11.116-5.264 2.64-10.454-2.412-1.477-5.152-3.058-8.263-4.736l-48.78-26.322v-41.853l66.271 35.76c14.158 7.639 25.009 15.344 32.252 22.9 12.945 13.504 13.35 25.492 11.411 33.171" fill="#f00"/></g></g></g><path d="m365.6 130.78h-40.279v238.83h40.279zm-41.227 344.51h42.648v-43.597h-42.648zm413.48-135.1q15.966 28.692 38.179 42.344 22.213 13.652 52.294 13.652 40.493 0 62.475-28.461 21.982-28.229 21.982-80.523v-156.42h-42.807v155.03q0 37.254-13.189 55.302-13.189 18.048-40.262 18.048-33.089 0-52.294-21.982-19.205-21.982-19.205-59.93v-146.47h-42.807v155.03q0 37.485-13.189 55.302-13.189 18.048-40.724 18.048-32.626 0-51.831-22.213-19.205-21.982-19.205-59.698v-146.47h-42.807v259.15h42.807v-40.262q14.577 23.833 34.94 35.171 20.362 11.338 48.36 11.338 28.229 0 47.897-14.346 19.899-14.346 29.386-41.65zm-307.45 150.63h42.575v-360.04h-42.575zm-145.98 0v-35.402h-40.724q-22.907 0-31.932-9.2555-8.7928-9.2556-8.7928-33.32v-22.907h70.111v-33.089h-70.111v-226.07h-42.807v226.07h-40.724v33.089h40.724v18.048q0 43.27 20.131 62.938 20.131 19.899 63.863 19.899z"/></g></svg>
