<svg version="1.1" viewBox="0 0 2128 800" xml:space="preserve" xmlns="http://www.w3.org/2000/svg"><defs><clipPath id="f"><path d="M 0,377.089 H 731.072 V 0 H 0 Z"/></clipPath><clipPath id="e"><path d="m101.54 194.52v-24.795h44.881c3.535 0 6.696-0.09 9.521-0.245 3.589-0.196 6.036-0.94 7.297-2.054l48.049 11.215c-2.126 7.599-8.335 17.512-25.609 23.079-8.625 2.779-19.685 4.372-32.94 4.749z"/></clipPath><linearGradient id="c" x2="1" gradientTransform="matrix(-9.1844 39.35 159.12 37.138 161.53 167.03)" gradientUnits="userSpaceOnUse"><stop stop-color="#fff" stop-opacity="0" offset="0"/><stop stop-color="#fff" offset="1"/></linearGradient><mask id="a" x="0" y="0" width="1" height="1" maskUnits="userSpaceOnUse"><path d="m-32768 32767h65535v-65535h-65535z" fill="url(#c)"/></mask><linearGradient id="b" x2="1" gradientTransform="matrix(-9.1844 39.35 159.12 37.138 161.53 167.03)" gradientUnits="userSpaceOnUse"><stop stop-color="#a00417" offset="0"/><stop stop-color="#a00417" offset="1"/></linearGradient><clipPath id="d"><path d="M 0,377.089 H 731.072 V 0 H 0 Z"/></clipPath></defs><g transform="matrix(1.3333 0 0 -1.3333 566.74 650.86)"><g transform="matrix(2.9404 0 0 -2.9404 -16.087 134.4)" aria-label="sport"><path d="m73.248-87.784v14.052q-6.2992-3.2303-13.083-4.8455-6.7837-1.6152-14.052-1.6152-11.064 0-16.636 3.3919-5.4916 3.3919-5.4916 10.176 0 5.1685 3.9572 8.1566 3.9572 2.9073 15.909 5.5723l5.0878 1.1306q15.829 3.3918 22.451 9.6102 6.7029 6.1376 6.7029 17.202 0 12.598-10.014 19.947-9.9333 7.349-27.377 7.349-7.2683 0-15.183-1.4537-7.8336-1.3729-16.555-4.1994v-15.344q8.2374 4.2802 16.232 6.4607 7.9951 2.0997 15.829 2.0997 10.499 0 16.152-3.5534 5.6531-3.6341 5.6531-10.176 0-6.0569-4.1187-9.2872-4.0379-3.2303-17.848-6.2184l-5.1685-1.2114q-13.81-2.9073-19.947-8.8834-6.1376-6.0569-6.1376-16.555 0-12.76 9.0449-19.705 9.0449-6.9452 25.681-6.9452 8.2374 0 15.506 1.2114t13.406 3.6341z"/><path d="m112-13.567v47.97h-14.94v-124.85h14.94v13.729q4.684-8.0758 11.791-11.952 7.1875-3.9572 17.121-3.9572 16.475 0 26.731 13.083 10.337 13.083 10.337 34.403 0 21.32-10.337 34.403-10.256 13.083-26.731 13.083-9.9333 0-17.121-3.8764-7.1067-3.9572-11.791-12.033zm50.555-31.577q0-16.394-6.7837-25.681-6.7029-9.368-18.494-9.368t-18.574 9.368q-6.7029 9.2872-6.7029 25.681 0 16.394 6.7029 25.762 6.7837 9.2872 18.574 9.2872t18.494-9.2872q6.7837-9.368 6.7837-25.762z"/><path d="m231.41-80.032q-11.952 0-18.897 9.368-6.9452 9.2872-6.9452 25.52t6.8645 25.6q6.9452 9.2872 18.978 9.2872 11.871 0 18.817-9.368 6.9452-9.368 6.9452-25.52 0-16.071-6.9452-25.439-6.9452-9.4487-18.817-9.4487zm0-12.598q19.382 0 30.446 12.598t11.064 34.888q0 22.209-11.064 34.888-11.064 12.598-30.446 12.598-19.463 0-30.527-12.598-10.983-12.679-10.983-34.888 0-22.289 10.983-34.888 11.064-12.598 30.527-12.598z"/><path d="m344.02-76.559q-2.5035-1.4536-5.4916-2.0997-2.9073-0.72682-6.4607-0.72682-12.598 0-19.382 8.2374-6.703 8.1566-6.703 23.501v47.647h-14.94v-90.449h14.94v14.052q4.684-8.2374 12.195-12.195 7.5105-4.0379 18.251-4.0379 1.5344 0 3.3918 0.24228 1.8574 0.16152 4.1187 0.56531z"/><path d="m373.08-116.13v25.681h30.607v11.548h-30.607v49.101q0 11.064 2.9881 14.213 3.0688 3.1496 12.356 3.1496h15.263v12.437h-15.263q-17.202 0-23.743-6.3799-6.5414-6.4607-6.5414-23.42v-49.101h-10.902v-11.548h10.902v-25.681z"/></g><g transform="matrix(2.9404 0 0 2.9404 -723.64 -365.07)"><g clip-path="url(#f)"><g transform="translate(211.48 177.95)"><path d="m0 0c-1.939 7.679-7.989 18.036-25.795 23.774-9.961 3.209-23.17 4.837-39.258 4.837h-44.881v-36.833h44.881c3.535 0 6.697-0.09 9.521-0.244 9.924-0.543 11.116-5.264 2.641-10.454-2.412-1.477-5.152-3.058-8.263-4.736l-48.78-26.322v-41.853l66.271 35.76c14.158 7.64 25.009 15.344 32.252 22.9 12.945 13.504 13.35 25.492 11.411 33.171" fill="#f00"/></g></g></g><g transform="matrix(2.9404 0 0 2.9404 -723.64 -365.07)"><g clip-path="url(#e)"><g mask="url(#a)"><path d="m101.54 194.52v-24.795h44.881c3.535 0 6.696-0.09 9.521-0.245 3.589-0.196 6.036-0.94 7.297-2.054l48.049 11.215c-2.126 7.599-8.335 17.512-25.609 23.079-8.625 2.779-19.685 4.372-32.94 4.749z" fill="url(#b)"/></g></g></g><g transform="matrix(2.9404 0 0 2.9404 -723.64 -365.07)"><g clip-path="url(#d)"><g transform="translate(211.48 261.56)"><path d="m0 0c-1.939 7.678-7.989 18.036-25.795 23.773-9.961 3.21-23.17 4.838-39.258 4.838h-44.881v-36.833h44.881c3.535 0 6.698-0.09 9.522-0.244 9.923-0.543 11.116-5.264 2.64-10.454-2.412-1.477-5.152-3.058-8.263-4.736l-48.78-26.322v-41.853l66.271 35.76c14.158 7.639 25.009 15.344 32.252 22.9 12.945 13.504 13.35 25.492 11.411 33.171" fill="#f00"/></g></g></g></g></svg>
