<svg version="1.1" viewBox="0 0 2726 800" xml:space="preserve" xmlns="http://www.w3.org/2000/svg"><defs><clipPath id="f"><path d="M 0,377.089 H 902.858 V 0 H 0 Z"/></clipPath><clipPath id="e"><path d="m101.54 194.52v-24.795h44.881c3.535 0 6.696-0.09 9.521-0.245 3.589-0.196 6.036-0.94 7.297-2.054l48.049 11.215c-2.126 7.599-8.335 17.512-25.609 23.079-8.625 2.779-19.685 4.372-32.94 4.749z"/></clipPath><linearGradient id="c" x2="1" gradientTransform="matrix(-9.1844 39.35 159.12 37.138 161.53 167.03)" gradientUnits="userSpaceOnUse"><stop stop-color="#fff" stop-opacity="0" offset="0"/><stop stop-color="#fff" offset="1"/></linearGradient><mask id="a" x="0" y="0" width="1" height="1" maskUnits="userSpaceOnUse"><path d="m-32768 32767h65535v-65535h-65535z" fill="url(#c)"/></mask><linearGradient id="b" x2="1" gradientTransform="matrix(-9.1844 39.35 159.12 37.138 161.53 167.03)" gradientUnits="userSpaceOnUse"><stop stop-color="#a00417" offset="0"/><stop stop-color="#a00417" offset="1"/></linearGradient><clipPath id="d"><path d="M 0,377.089 H 902.858 V 0 H 0 Z"/></clipPath></defs><g transform="matrix(1.3333 0 0 -1.3333 764.08 650.86)"><g transform="matrix(2.9404 0 0 2.9404 -871.64 -365.07)"><g clip-path="url(#f)"><g transform="translate(285.29 220.47)"><path d="m0 0 9.427-1.489c14.554-2.48 23.817-9.923 23.817-25.139 0-13.727-11.744-26.132-34.236-26.132-23.651 0-35.228 10.42-37.048 26.298h14.224c1.323-9.428 9.592-14.059 22.162-14.059s20.839 4.466 20.839 13.563c0 7.277-4.631 11.246-15.216 13.065l-18.689 3.143c-11.908 2.15-20.012 8.435-20.012 21.004 0 13.893 10.42 24.643 32.913 24.643 19.681 0 31.093-9.262 32.912-23.816h-14.058c-1.158 7.939-9.096 11.577-19.516 11.577-10.75 0-18.027-3.969-18.027-11.081 0-6.45 4.134-8.931 12.57-10.254z" fill="#fff"/></g><g transform="translate(350.17 211.54)"><path d="m0 0c0-16.374 7.608-31.589 26.132-31.589 16.704 0 25.635 13.065 25.635 31.589s-8.931 31.59-25.635 31.59c-18.524 0-26.132-15.216-26.132-31.59m-0.331 41.678v-8.931h3.639c4.631 5.789 12.735 11.081 25.966 11.081 22.989 0 36.551-19.185 36.551-43.828 0-25.139-13.562-43.828-36.551-43.828-13.231 0-21.004 5.127-25.47 11.081h-3.638v-42.009h-14.059v116.43z" fill="#fff"/></g><g transform="translate(497.93 211.54)"><path d="m0 0c0 16.374-8.6 31.59-26.958 31.59-18.524 0-26.959-15.216-26.959-31.59s8.435-31.589 26.959-31.589c18.358 0 26.958 15.215 26.958 31.589m14.058 0c0-24.643-15.05-43.828-41.016-43.828-26.132 0-41.017 19.185-41.017 43.828s14.885 43.828 41.017 43.828c25.966 0 41.016-19.185 41.016-43.828" fill="#fff"/></g><g transform="translate(577.96 239.99)"><path d="m0 0h-6.946c-16.539 0-26.628-10.089-26.628-28.447v-41.678h-14.058v83.356h13.562v-9.923h3.638c4.135 5.127 12.074 9.923 24.147 9.923h6.285z" fill="#fff"/></g><g transform="translate(637.45 253.22)"><path d="m0 0v-12.239h-21.004v-45.813c0-8.435 3.638-12.735 14.885-12.735h6.119v-12.57h-6.45c-18.028 0-28.613 5.624-28.613 23.32v47.798h-14.389v12.239h14.389v25.139h14.059v-25.139z" fill="#fff"/></g><g transform="translate(211.48 177.95)"><path d="m0 0c-1.939 7.679-7.989 18.036-25.795 23.774-9.961 3.209-23.17 4.837-39.258 4.837h-44.881v-36.833h44.881c3.535 0 6.697-0.09 9.521-0.244 9.924-0.543 11.116-5.264 2.641-10.454-2.412-1.477-5.152-3.058-8.263-4.736l-48.78-26.322v-41.853l66.271 35.76c14.158 7.64 25.009 15.344 32.252 22.9 12.945 13.504 13.35 25.492 11.411 33.171" fill="#f00"/></g></g></g><g transform="matrix(2.9404 0 0 2.9404 -871.64 -365.07)"><g clip-path="url(#e)"><g mask="url(#a)"><path d="m101.54 194.52v-24.795h44.881c3.535 0 6.696-0.09 9.521-0.245 3.589-0.196 6.036-0.94 7.297-2.054l48.049 11.215c-2.126 7.599-8.335 17.512-25.609 23.079-8.625 2.779-19.685 4.372-32.94 4.749z" fill="url(#b)"/></g></g></g><g transform="matrix(2.9404 0 0 2.9404 -871.64 -365.07)"><g clip-path="url(#d)"><g transform="translate(211.48 261.56)"><path d="m0 0c-1.939 7.678-7.989 18.036-25.795 23.773-9.961 3.21-23.17 4.838-39.258 4.838h-44.881v-36.833h44.881c3.535 0 6.698-0.09 9.522-0.244 9.923-0.543 11.116-5.264 2.64-10.454-2.412-1.477-5.152-3.058-8.263-4.736l-48.78-26.322v-41.853l66.271 35.76c14.158 7.639 25.009 15.344 32.252 22.9 12.945 13.504 13.35 25.492 11.411 33.171" fill="#f00"/></g><g transform="translate(774.71 289.97)"><path d="m0 0h-75.819c-12.235 0-22.154-9.918-22.154-22.153v-75.819c0-12.236 9.919-22.154 22.154-22.154h75.819c12.235 0 22.153 9.918 22.153 22.154v75.819c0 12.235-9.918 22.153-22.153 22.153m0-3.5c10.286 0 18.653-8.368 18.653-18.653v-75.819c0-10.286-8.367-18.654-18.653-18.654h-75.819c-10.285 0-18.654 8.368-18.654 18.654v75.819c0 10.285 8.369 18.653 18.654 18.653h75.819" fill="#fff"/></g><g transform="translate(760.26 270.28)"><path d="m0 0v-11.299l-20.177-17.294v-2.421c13.836-0.346 23.982-8.994 23.982-24.559 0-16.717-11.991-26.633-28.478-26.633-16.372 0-27.325 10.377-28.247 24.097h10.146c0.922-9.224 8.416-15.104 18.101-15.104 11.068 0 18.332 6.572 18.332 17.64 0 10.608-6.342 17.18-18.217 17.18-2.882 0-5.188-0.231-7.033-0.692v10.722l19.716 17.064v2.537h-35.281v8.762z" fill="#fff"/></g></g></g></g></svg>
