<svg width="114.92mm" height="211.67mm" version="1.1" viewBox="0 0 114.92 211.67" xmlns="http://www.w3.org/2000/svg">
 <defs>
  <clipPath id="i">
   <path d="M 0,377.089 H 841.89 V 0 H 0 Z"/>
  </clipPath>
  <clipPath id="h">
   <path d="m668.18 193.7v-18.083h32.731c2.579 0 4.885-0.065 6.944-0.178 2.618-0.143 4.403-0.685 5.322-1.498l35.042 8.179c-1.551 5.542-6.079 12.772-18.677 16.831-6.29 2.027-14.356 3.189-24.022 3.464z"/>
  </clipPath>
  <mask id="l" x="0" y="0" width="1" height="1" maskUnits="userSpaceOnUse">
   <path d="m-32768 32767h65535v-65535h-65535z" fill="url(#j)"/>
  </mask>
  <linearGradient id="j" x2="1" gradientTransform="matrix(-6.6981,28.698,116.04,27.085,711.93,173.65)" gradientUnits="userSpaceOnUse">
   <stop stop-color="#fff" stop-opacity="0" offset="0"/>
   <stop stop-color="#fff" offset="1"/>
  </linearGradient>
  <linearGradient id="k" x2="1" gradientTransform="matrix(-6.6981,28.698,116.04,27.085,711.93,173.65)" gradientUnits="userSpaceOnUse">
   <stop stop-color="#a00417" offset="0"/>
   <stop stop-color="#a00417" offset="1"/>
  </linearGradient>
  <clipPath id="g">
   <path d="M 0,377.089 H 841.89 V 0 H 0 Z"/>
  </clipPath>
 </defs>
 <g transform="matrix(.54296 0 0 .54296 54.211 21.322)">
  <g transform="matrix(2.6196,0,0,-2.6196,-1850.2,650.88)">
   <g clip-path="url(#g)">
    <g transform="translate(748.35,181.61)">
     <path d="m0 0c-1.415 5.6-5.827 13.154-18.812 17.338-7.265 2.341-16.898 3.527-28.63 3.527h-32.731v-26.861h32.731c2.578 0 4.884-0.066 6.943-0.178 7.237-0.396 8.107-3.839 1.926-7.624-1.759-1.077-3.758-2.23-6.026-3.454l-35.574-19.196v-30.523l48.33 26.079c10.325 5.571 18.239 11.19 23.521 16.701 9.441 9.848 9.737 18.591 8.322 24.191" fill="#f00"/>
    </g>
   </g>
  </g>
  <g transform="matrix(2.6196,0,0,-2.6196,-1850.2,650.88)">
   <g clip-path="url(#h)">
    <g mask="url(#l)">
     <path d="m668.18 193.7v-18.083h32.731c2.579 0 4.885-0.065 6.944-0.178 2.618-0.143 4.403-0.685 5.322-1.498l35.042 8.179c-1.551 5.542-6.079 12.772-18.677 16.831-6.29 2.027-14.356 3.189-24.022 3.464z" fill="url(#k)"/>
    </g>
   </g>
  </g>
  <g transform="matrix(2.6196,0,0,-2.6196,-1850.2,650.88)">
   <g clip-path="url(#i)">
    <g transform="translate(748.35,242.59)">
     <path d="m0 0c-1.415 5.6-5.827 13.154-18.812 17.338-7.265 2.341-16.898 3.528-28.63 3.528h-32.731v-26.862h32.731c2.578 0 4.884-0.066 6.944-0.178 7.237-0.396 8.106-3.839 1.925-7.624-1.759-1.077-3.757-2.23-6.026-3.454l-35.574-19.196v-30.523l48.33 26.079c10.325 5.571 18.239 11.19 23.521 16.701 9.441 9.848 9.737 18.591 8.322 24.191" fill="#f00"/>
    </g>
   </g>
  </g>
 </g>
</svg>
